<svg xmlns="http://www.w3.org/2000/svg" width="212" height="42" viewBox="0 0 212 42">
    <g fill="none" fill-rule="evenodd">
        <g fill="black">
            <g>
                <path d="M65.135 19.123c.417-.363.627-.899.627-1.607 0-1.587-.817-2.38-2.452-2.38h-2.802v4.532h2.802c.798 0 1.406-.182 1.825-.545zM65.937 31l-3.444-6.34h-1.985V31H54V10h10.157c2.646 0 4.65.646 6.012 1.936 1.362 1.292 2.043 3.19 2.043 5.695 0 3.31-1.167 5.327-3.502 6.053L73 31h-7.063zM82.502 15.135L82.502 17.918 91.805 17.918 91.805 23.053 82.502 23.053 82.502 25.865 93 25.865 93 31 76 31 76 10 93 10 93 15.135zM114 25.865L114 31 97 31 97 10 103.675 10 103.675 25.865zM122.502 15.135L122.502 17.918 131.804 17.918 131.804 23.053 122.502 23.053 122.502 25.865 133 25.865 133 31 116 31 116 10 133 10 133 15.135zM146.5 17.814l-2.078 5.315h4.186l-2.108-5.315zM151.874 31l-1.395-2.988h-7.958L141.126 31H134l9.62-21h5.76L159 31h-7.126zM161.268 23.676c.888.545 2.003.998 3.345 1.357 1.341.36 2.608.54 3.798.54.832 0 1.413-.083 1.744-.248.33-.165.495-.51.495-1.036 0-.428-.146-.715-.439-.86-.293-.147-.846-.287-1.658-.424l-.992-.175c-1.984-.389-3.582-.865-4.79-1.43-1.21-.563-2.098-1.269-2.665-2.115-.567-.846-.85-1.872-.85-3.078 0-2.49.665-4.313 1.998-5.47 1.332-1.158 3.5-1.737 6.505-1.737 1.644 0 3.213.224 4.706.671 1.492.448 2.815 1.041 3.968 1.78l-2.494 4.58c-.832-.466-1.838-.845-3.02-1.137-1.18-.292-2.281-.438-3.302-.438-.718 0-1.233.088-1.544.263-.312.175-.468.477-.468.904 0 .331.085.584.255.759.17.175.406.302.709.38.302.077.84.185 1.615.32 2.136.331 3.841.764 5.117 1.298 1.275.536 2.211 1.226 2.806 2.072.595.846.893 1.911.893 3.195 0 2.549-.662 4.411-1.984 5.588-1.323 1.177-3.487 1.765-6.491 1.765-1.834 0-3.582-.229-5.245-.686-1.663-.457-3.09-1.133-4.28-2.028l2.268-4.61zM180 31L186 31 186 10 180 10zM206.086 31L198.372 20.701 198.372 31 192 31 192 10 197.886 10 205.628 20.414 205.628 10 212 10 212 31zM33.469 0H8.53C3.82 0 0 3.82 0 8.531c0 8.192 2.944 15.695 7.83 21.512L24.38 13.495l-14.513.351c-1.178.031-2.146-.912-2.14-2.09V9.017c0-1.16.938-2.097 2.091-2.09l23.974-.007c1.16 0 2.097.938 2.09 2.091V32.98c0 1.16-.937 2.097-2.09 2.09h-2.738c-1.173 0-2.116-.968-2.092-2.14l.352-14.5-16.465 16.465C18.531 39.346 25.69 42 33.468 42 38.18 42 42 38.18 42 33.469V8.53C42 3.82 38.18 0 33.469 0" transform="translate(-154 -55) translate(154 55)"/>
            </g>
        </g>
    </g>
</svg>
